<svg width="583" height="263" viewBox="0 0 583 263" fill="none" xmlns="http://www.w3.org/2000/svg">
<path d="M293.354 136.667C331.094 136.667 361.688 106.073 361.688 68.3333C361.688 30.5939 331.094 0 293.354 0C255.615 0 225.021 30.5939 225.021 68.3333C225.021 106.073 255.615 136.667 293.354 136.667Z" fill="black"/>
<path d="M292.248 74.1109L285.694 79.2047C285.694 79.2047 286.983 80.1581 289.444 80.1581C291.906 80.1581 297.298 77.1093 298.836 76.6556C300.741 76.0945 302.35 76.7586 303.075 77.1553C303.299 77.2759 303.503 77.4227 303.691 77.5937L318.961 91.4414L344.82 71.3756L344.526 42.5952C344.526 42.5733 344.531 42.5514 344.531 42.5295C344.531 42.4966 344.526 42.4637 344.526 42.4309V42.3257L344.522 42.3235C344.414 40.5218 342.922 39.0928 341.094 39.0928C340.386 39.0928 339.728 39.3076 339.183 39.6736L339.181 39.6758C339.154 39.6933 339.132 39.713 339.106 39.7306L292.268 74.1285L292.248 74.1109Z" fill="#FABF5B"/>
<path d="M303.197 85.4201C303.197 85.4201 301.242 83.0551 298.757 82.9587C295.566 82.8338 292.87 86.6979 286.45 85.9987C282.224 85.5384 276.701 79.6644 276.701 79.6644L287.151 70.0578L247.688 38.6539H247.686C247.248 38.2002 246.634 37.9153 245.952 37.9153C244.62 37.9153 243.539 38.9958 243.539 40.3284C243.539 40.3876 243.544 40.4446 243.548 40.5016L243.478 69.8584C243.478 69.8693 243.476 69.8803 243.476 69.8935C243.476 69.9044 243.478 69.9132 243.478 69.9241L243.476 70.5817L243.614 70.8491C243.739 71.2809 243.945 71.6776 244.216 72.0217L244.221 72.0304L244.225 72.0348C244.541 72.4293 244.94 72.7537 245.398 72.9773L291.031 109.685C291.055 109.705 291.079 109.725 291.103 109.745L291.276 109.885H291.289C291.844 110.268 292.517 110.494 293.242 110.494C293.968 110.494 294.641 110.268 295.195 109.885H295.197L295.239 109.852C295.318 109.795 295.395 109.736 295.469 109.674L313.972 95.316L303.197 85.4201Z" fill="#FABF5B"/>
<path d="M197.786 192.16L202.826 176.992V196H208.97V161.104H202.25L197.786 176.176L193.37 161.104H186.698V196H192.842V176.992L197.786 192.16ZM217.342 186.4H227.23V173.392C227.23 171.28 226.03 170.32 224.206 170.32H214.942C213.118 170.32 211.87 171.328 211.87 173.44V193.12C211.87 194.944 212.926 196 214.798 196H225.694L226.846 190.528H218.302C217.678 190.528 217.342 190.528 217.342 189.664V186.4ZM217.342 176.224C217.342 175.408 217.678 175.264 218.302 175.264H221.182C221.806 175.264 222.19 175.408 222.19 176.224V182.512H217.342V176.224ZM236.795 190.528C237.947 185.152 238.043 181.456 238.187 175.648H242.507V190.528H236.795ZM234.347 196H244.619V201.76L249.659 200.656V190.528H248.027V170.32H232.955C232.907 181.024 232.043 186.976 230.891 190.528H229.307V201.76L234.347 200.656V196ZM258.125 170.32H252.557V196H258.125V195.328L262.685 178.24V196H268.205V170.32H262.685V171.088L258.125 187.84V170.32ZM281.201 183.856V190.72H277.217C276.545 190.72 276.209 190.624 276.209 189.76V184.864C276.209 184.048 276.497 183.856 277.169 183.856H281.201ZM280.289 175.648C280.961 175.648 281.201 175.744 281.201 176.512V179.632H274.289C272.177 179.632 271.073 180.688 271.073 182.8V192.976C271.073 194.944 272.273 196 274.097 196H278.945L281.201 193.312V196H286.673V173.536C286.673 171.424 285.473 170.32 283.313 170.32H273.137L272.033 175.648H280.289ZM299.862 175.264V196H305.43V170.32H289.542V196H295.11V175.264H299.862ZM321.012 196C323.172 196 324.18 194.896 324.18 192.784V173.344C324.18 171.424 323.172 170.32 321.252 170.32H308.292V206.08H313.764V193.312L316.068 196H321.012ZM313.764 190.72V175.264H317.604C318.276 175.264 318.708 175.456 318.708 176.32V189.616C318.708 190.48 318.276 190.72 317.604 190.72H313.764ZM333.474 190.96C332.85 190.96 332.514 190.864 332.514 190.048V176.032C332.514 175.216 332.898 175.024 333.522 175.024H336.45C337.122 175.024 337.458 175.216 337.458 176.032V190.048C337.458 190.864 337.17 190.96 336.498 190.96H333.474ZM327.042 192.784C327.042 194.896 328.098 196 330.21 196H339.762C341.922 196 342.93 194.896 342.93 192.784V173.536C342.93 171.424 341.922 170.32 339.762 170.32H330.21C328.098 170.32 327.042 171.424 327.042 173.536V192.784ZM351.264 186.4H361.152V173.392C361.152 171.28 359.952 170.32 358.128 170.32H348.864C347.04 170.32 345.792 171.328 345.792 173.44V193.12C345.792 194.944 346.848 196 348.72 196H359.616L360.768 190.528H352.224C351.6 190.528 351.264 190.528 351.264 189.664V186.4ZM351.264 176.224C351.264 175.408 351.6 175.264 352.224 175.264H355.104C355.728 175.264 356.112 175.408 356.112 176.224V182.512H351.264V176.224ZM369.786 170.32H364.026V196H369.786V185.152H371.802L374.826 196H380.97L376.794 182.272L378.762 176.224C378.954 175.648 379.098 175.648 379.53 175.648H381.162L379.674 170.32H375.69C375.354 170.32 375.066 170.512 374.97 170.8L371.466 181.456H369.786V170.32ZM386.937 196H392.745V175.648H397.257L395.769 170.32H383.865L382.425 175.648H386.937V196ZM77.7059 238.392L83.5139 249H88.9859L83.3219 238.392L88.9859 227.784H83.5139L77.7059 238.392ZM69.3059 238.392L74.9219 249H80.5379L74.7299 238.392L80.5379 227.784H74.9219L69.3059 238.392ZM108.405 214.104H90.8853V249H97.2213V219.768H102.117V249H108.405V214.104ZM117.708 243.96C117.084 243.96 116.748 243.864 116.748 243.048V229.032C116.748 228.216 117.132 228.024 117.756 228.024H120.684C121.356 228.024 121.692 228.216 121.692 229.032V243.048C121.692 243.864 121.404 243.96 120.732 243.96H117.708ZM111.276 245.784C111.276 247.896 112.332 249 114.444 249H123.996C126.156 249 127.164 247.896 127.164 245.784V226.536C127.164 224.424 126.156 223.32 123.996 223.32H114.444C112.332 223.32 111.276 224.424 111.276 226.536V245.784ZM137.514 243.528C138.666 238.152 138.762 234.456 138.906 228.648H143.226V243.528H137.514ZM135.066 249H145.338V254.76L150.378 253.656V243.528H148.746V223.32H133.674C133.626 234.024 132.762 239.976 131.61 243.528H130.026V254.76L135.066 253.656V249ZM163.02 227.976C163.74 227.976 164.028 228.216 164.028 228.888V233.544C164.028 234.312 163.644 234.504 163.068 234.504H158.844V227.976H163.02ZM164.124 242.712C164.124 243.48 163.932 243.72 163.116 243.72H158.844V237.72H163.02C163.74 237.72 164.124 237.816 164.124 238.776V242.712ZM169.74 238.728C169.74 237.528 169.02 236.088 167.436 236.088C169.26 235.8 169.452 234.36 169.452 233.256V226.536C169.452 224.52 168.204 223.32 166.14 223.32H153.276V249H165.996C168.684 249 169.74 247.896 169.74 245.4V238.728ZM178.203 223.32H172.635V249H178.203V248.328L182.763 231.24V249H188.283V223.32H182.763V224.088L178.203 240.84V223.32ZM191.151 249H196.911V228.648H203.439L201.951 223.32H191.151V249ZM211.391 223.32H205.823V249H211.391V248.328L215.951 231.24V249H221.471V223.32H215.951V224.088L211.391 240.84V223.32ZM236.77 243.96C236.146 243.96 235.81 243.864 235.81 243.048V229.032C235.81 228.216 236.194 228.024 236.818 228.024H239.746C240.418 228.024 240.754 228.216 240.754 229.032V243.048C240.754 243.864 240.466 243.96 239.794 243.96H236.77ZM230.338 245.784C230.338 247.896 231.394 249 233.506 249H243.058C245.218 249 246.226 247.896 246.226 245.784V226.536C246.226 224.424 245.218 223.32 243.058 223.32H233.506C231.394 223.32 230.338 224.424 230.338 226.536V245.784ZM254.56 228.504H258.544C259.168 228.504 259.504 228.648 259.504 229.464V242.76C259.504 243.624 259.216 243.72 258.592 243.72H255.52C254.848 243.72 254.56 243.624 254.56 242.76V228.504ZM264.832 213.768C263.056 213.48 261.616 213.144 259.792 212.808V213.048C259.792 213.912 259.36 214.104 258.736 214.104H252.064C250.144 214.104 249.088 215.208 249.088 217.128V245.976C249.088 247.896 250.144 249 252.064 249H262.048C263.968 249 264.976 247.896 264.976 245.976V226.776C264.976 224.664 263.968 223.56 261.808 223.56H254.56V220.344C254.56 219.48 254.896 219.384 255.568 219.384H261.856C263.824 219.384 264.832 218.28 264.832 216.36V213.768ZM273.406 223.32H267.838V249H280.654C282.814 249 283.726 247.896 283.726 246.12V234.696C283.726 232.92 282.814 231.768 280.654 231.768H273.406V223.32ZM273.406 244.056V236.712H277.15C278.062 236.712 278.158 237 278.158 237.768V243.048C278.158 243.672 277.966 244.056 277.246 244.056H273.406ZM292.318 223.32H286.606V249H292.318V223.32ZM305.677 235.32H301.741C300.829 235.32 300.781 235.08 300.781 234.36V223.32H295.213V235.416C295.213 238.008 296.173 238.968 298.813 238.968H305.677V249H311.245V223.32H305.677V235.32ZM324.424 223.32V234.792H319.672V223.32H314.104V249H319.672V238.536H324.424V249H329.992V223.32H324.424ZM338.422 223.32H332.854V249H345.67C347.83 249 348.742 247.896 348.742 246.12V234.696C348.742 232.92 347.83 231.768 345.67 231.768H338.422V223.32ZM338.422 244.056V236.712H342.166C343.078 236.712 343.174 237 343.174 237.768V243.048C343.174 243.672 342.982 244.056 342.262 244.056H338.422ZM357.334 223.32H351.622V249H357.334V223.32ZM359.749 249H365.653L368.245 238.728L370.885 249H376.741L372.421 235.848L376.789 223.32H370.789L368.245 233.976L365.605 223.32H359.749L364.069 235.8L359.749 249ZM387.135 243.528H384.207L385.695 249H392.751V228.264H397.455V249H403.023V223.32H387.135V243.528ZM416.205 245.784C416.205 247.896 417.261 249 419.373 249H428.925C431.085 249 432.093 247.896 432.093 245.784V226.536C432.093 224.424 431.085 223.32 428.925 223.32H419.373C417.261 223.32 416.205 224.424 416.205 226.536V233.544H411.453V223.32H405.885V249H411.453V238.488H416.205V245.784ZM422.685 243.96C422.013 243.96 421.677 243.864 421.677 243.048V229.032C421.677 228.216 422.013 228.024 422.685 228.024H425.613C426.285 228.024 426.621 228.216 426.621 229.032V243.048C426.621 243.864 426.285 243.96 425.613 243.96H422.685ZM442.483 243.528C443.635 238.152 443.731 234.456 443.875 228.648H448.195V243.528H442.483ZM440.035 249H450.307V254.76L455.347 253.656V243.528H453.715V223.32H438.643C438.595 234.024 437.731 239.976 436.579 243.528H434.995V254.76L440.035 253.656V249ZM463.717 239.4H473.605V226.392C473.605 224.28 472.405 223.32 470.581 223.32H461.317C459.493 223.32 458.245 224.328 458.245 226.44V246.12C458.245 247.944 459.301 249 461.173 249H472.069L473.221 243.528H464.677C464.053 243.528 463.717 243.528 463.717 242.664V239.4ZM463.717 229.224C463.717 228.408 464.053 228.264 464.677 228.264H467.557C468.181 228.264 468.565 228.408 468.565 229.224V235.512H463.717V229.224ZM488.191 216.168C488.095 219.384 486.367 219.336 484.303 219.336C482.431 219.336 480.559 219.384 480.415 216.168H477.151C477.343 220.872 480.463 221.88 484.303 221.88C488.095 221.88 491.263 220.872 491.455 216.168H488.191ZM482.047 223.32H476.479V249H482.047V248.328L486.607 231.24V249H492.127V223.32H486.607V224.088L482.047 240.84V223.32ZM499.507 227.784H494.035L499.699 238.392L494.035 249H499.507L505.315 238.392L499.507 227.784ZM508.099 227.784H502.483L508.291 238.392L502.483 249H508.099L513.715 238.392L508.099 227.784Z" fill="#FABF5B"/>
</svg>
