<svg width="12" height="18" viewBox="0 0 12 18" fill="none" xmlns="http://www.w3.org/2000/svg">
<path fill-rule="evenodd" clip-rule="evenodd" d="M5.15648 9.53136C5.23607 9.41727 5.38304 9.20648 5.42698 9.15109C5.36107 9.0514 5.23693 8.88195 5.15653 8.76667L0.121124 1.54693C-0.186005 1.10657 0.12638 0.5 0.660297 0.5H5.81827C5.92759 0.5 6.07514 0.500022 6.16303 0.500006C6.20697 0.566483 6.29826 0.696695 6.35901 0.784563L11.8816 8.77306C12.0395 9.00143 12.0395 9.30481 11.8816 9.53318L6.37689 17.4954C6.31043 17.5916 6.25092 17.6803 6.185 17.78C6.08613 17.78 5.93548 17.78 5.83616 17.78H0.67148C0.137524 17.78 -0.174852 17.1733 0.132354 16.733L5.15648 9.53136Z" fill="#3D3D3D"/>
</svg>
