<svg width="12" height="18" viewBox="0 0 12 18" fill="none" xmlns="http://www.w3.org/2000/svg">
<path fill-rule="evenodd" clip-rule="evenodd" d="M6.84352 9.53136C6.76393 9.41727 6.61696 9.20648 6.57302 9.15109C6.63893 9.0514 6.76307 8.88195 6.84347 8.76667L11.8789 1.54693C12.186 1.10657 11.8736 0.5 11.3397 0.5H6.18173C6.07241 0.5 5.92486 0.500022 5.83697 0.500006C5.79303 0.566483 5.70174 0.696695 5.64099 0.784563L0.118404 8.77306C-0.0394716 9.00143 -0.0394688 9.30481 0.118412 9.53318L5.62311 17.4954C5.68957 17.5916 5.74908 17.6803 5.815 17.78C5.91387 17.78 6.06452 17.78 6.16384 17.78H11.3285C11.8625 17.78 12.1749 17.1733 11.8676 16.733L6.84352 9.53136Z" fill="#3D3D3D"/>
</svg>
